<?xml version="1.0" standalone="no"?>
<!DOCTYPE svg PUBLIC "-//W3C//DTD SVG 20010904//EN"
 "http://www.w3.org/TR/2001/REC-SVG-20010904/DTD/svg10.dtd">
<svg version="1.0" xmlns="http://www.w3.org/2000/svg"
 width="2000.000000pt" height="2000.000000pt" viewBox="0 0 2000.000000 2000.000000"
 preserveAspectRatio="xMidYMid meet">

<g transform="translate(0.000000,2000.000000) scale(0.100000,-0.100000)"
fill="#000000" stroke="none">
<path d="M6000 15753 c-186 -24 -379 -86 -560 -179 -181 -93 -294 -178 -456
-339 -249 -249 -388 -498 -451 -811 -13 -67 -17 -136 -17 -284 0 -218 15 -315
79 -506 172 -517 627 -950 1162 -1105 60 -17 114 -37 120 -43 10 -9 6 -29 -23
-96 -20 -47 -141 -348 -269 -670 -318 -797 -423 -1031 -656 -1450 -255 -461
-400 -887 -466 -1370 -21 -154 -23 -556 -4 -705 19 -151 66 -376 106 -510 203
-675 668 -1299 1307 -1756 616 -441 1411 -721 2388 -843 544 -68 866 -79 2040
-73 911 5 1037 9 1400 43 1377 129 2395 542 3121 1264 905 900 1187 2050 794
3235 -92 280 -186 488 -352 782 -179 319 -339 677 -616 1378 -91 231 -197 496
-236 590 -55 133 -68 172 -58 181 6 7 48 22 92 34 471 130 882 468 1100 905
73 146 113 261 146 415 31 139 33 446 6 583 -40 200 -117 380 -239 564 -90
135 -308 357 -448 456 -189 133 -428 239 -652 289 -137 31 -406 33 -538 4
-237 -51 -419 -152 -666 -366 -199 -173 -371 -397 -491 -637 -31 -63 -62 -117
-68 -119 -6 -3 -71 24 -145 60 -545 260 -1080 417 -1665 490 -307 38 -642 52
-910 37 -777 -44 -1412 -204 -2089 -525 -77 -37 -146 -64 -153 -62 -7 3 -24
30 -37 61 -103 232 -290 487 -491 668 -253 228 -448 338 -697 393 -72 16 -335
27 -408 17z m1681 -5343 c102 -19 195 -73 284 -163 93 -94 148 -190 191 -332
25 -83 28 -104 28 -260 0 -145 -3 -182 -22 -250 -66 -238 -236 -438 -420 -495
-75 -23 -193 -26 -267 -6 -207 55 -380 257 -446 521 -32 125 -32 322 -1 448
90 363 367 591 653 537z m5120 0 c179 -33 357 -193 443 -398 72 -171 90 -396
47 -577 -61 -255 -232 -464 -429 -525 -250 -77 -508 58 -642 335 -57 116 -77
189 -89 317 -35 370 148 725 424 823 104 36 156 42 246 25z m-1823 -1392 c47
-29 66 -71 65 -148 -1 -112 -93 -325 -179 -414 -77 -81 -302 -217 -418 -252
l-59 -18 6 -116 c6 -136 25 -197 75 -246 49 -47 159 -99 279 -131 94 -25 110
-26 368 -27 l270 -1 121 43 c183 64 265 56 305 -31 24 -55 24 -118 -1 -167
-70 -137 -416 -270 -701 -270 -55 0 -99 -2 -99 -5 0 -2 -14 -91 -30 -197 -51
-324 -112 -545 -178 -639 -94 -135 -271 -176 -426 -100 -61 30 -70 38 -87 80
-43 104 -52 116 -84 116 -27 0 -33 -7 -67 -74 -45 -89 -61 -109 -113 -132 -69
-32 -276 -20 -353 20 -38 20 -97 77 -124 121 -8 14 -25 52 -37 85 -27 70 -133
499 -157 633 l-17 92 -111 0 c-183 0 -369 43 -542 126 -84 39 -163 119 -182
181 -28 95 -5 180 59 215 55 31 114 19 259 -51 166 -80 241 -95 439 -88 180 6
264 27 417 103 123 60 200 128 233 206 20 46 48 226 39 250 -3 8 -26 20 -49
27 -192 57 -383 200 -499 373 -71 106 -103 185 -104 259 -1 62 13 87 69 118
50 27 220 19 395 -19 279 -60 291 -62 450 -50 216 15 319 35 445 87 187 77
251 85 323 41z"/>
<path d="M10148 7453 c6 -2 18 -2 25 0 6 3 1 5 -13 5 -14 0 -19 -2 -12 -5z"/>
</g>
</svg>
